<svg xmlns="http://www.w3.org/2000/svg" viewBox="0 0 400 400" width="400" height="400">
  <!-- Dotted circle pattern -->
  <g fill="#333333">
    <!-- Outer circle dots -->
    <g>
      <!-- Generate dots around the circle -->
      <circle cx="200" cy="80" r="4"/>
      <circle cx="220" cy="82" r="4"/>
      <circle cx="240" cy="87" r="4"/>
      <circle cx="258" cy="95" r="4"/>
      <circle cx="275" cy="105" r="4"/>
      <circle cx="290" cy="120" r="4"/>
      <circle cx="302" cy="135" r="4"/>
      <circle cx="312" cy="155" r="4"/>
      <circle cx="318" cy="175" r="4"/>
      <circle cx="320" cy="195" r="4"/>
      <circle cx="318" cy="215" r="4"/>
      <circle cx="312" cy="235" r="4"/>
      <circle cx="302" cy="255" r="4"/>
      <circle cx="290" cy="270" r="4"/>
      <circle cx="275" cy="285" r="4"/>
      <circle cx="258" cy="295" r="4"/>
      <circle cx="240" cy="303" r="4"/>
      <circle cx="220" cy="308" r="4"/>
      <circle cx="200" cy="310" r="4"/>
      <circle cx="180" cy="308" r="4"/>
      <circle cx="160" cy="303" r="4"/>
      <circle cx="142" cy="295" r="4"/>
      <circle cx="125" cy="285" r="4"/>
      <circle cx="110" cy="270" r="4"/>
      <circle cx="98" cy="255" r="4"/>
      <circle cx="88" cy="235" r="4"/>
      <circle cx="82" cy="215" r="4"/>
      <circle cx="80" cy="195" r="4"/>
      <circle cx="82" cy="175" r="4"/>
      <circle cx="88" cy="155" r="4"/>
      <circle cx="98" cy="135" r="4"/>
      <circle cx="110" cy="120" r="4"/>
      <circle cx="125" cy="105" r="4"/>
      <circle cx="142" cy="95" r="4"/>
      <circle cx="160" cy="87" r="4"/>
      <circle cx="180" cy="82" r="4"/>
    </g>
    
    <!-- Middle circle dots (smaller and fewer) -->
    <g>
      <circle cx="200" cy="100" r="3.5"/>
      <circle cx="215" cy="102" r="3.5"/>
      <circle cx="230" cy="106" r="3.5"/>
      <circle cx="244" cy="112" r="3.5"/>
      <circle cx="257" cy="120" r="3.5"/>
      <circle cx="268" cy="130" r="3.5"/>
      <circle cx="278" cy="142" r="3.5"/>
      <circle cx="285" cy="155" r="3.5"/>
      <circle cx="290" cy="170" r="3.5"/>
      <circle cx="292" cy="185" r="3.5"/>
      <circle cx="290" cy="200" r="3.5"/>
      <circle cx="285" cy="215" r="3.5"/>
      <circle cx="278" cy="228" r="3.5"/>
      <circle cx="268" cy="240" r="3.5"/>
      <circle cx="257" cy="250" r="3.5"/>
      <circle cx="244" cy="258" r="3.5"/>
      <circle cx="230" cy="264" r="3.5"/>
      <circle cx="215" cy="268" r="3.5"/>
      <circle cx="200" cy="270" r="3.5"/>
      <circle cx="185" cy="268" r="3.5"/>
      <circle cx="170" cy="264" r="3.5"/>
      <circle cx="156" cy="258" r="3.5"/>
      <circle cx="143" cy="250" r="3.5"/>
      <circle cx="132" cy="240" r="3.5"/>
      <circle cx="122" cy="228" r="3.5"/>
      <circle cx="115" cy="215" r="3.5"/>
      <circle cx="110" cy="200" r="3.5"/>
      <circle cx="108" cy="185" r="3.5"/>
      <circle cx="110" cy="170" r="3.5"/>
      <circle cx="115" cy="155" r="3.5"/>
      <circle cx="122" cy="142" r="3.5"/>
      <circle cx="132" cy="130" r="3.5"/>
      <circle cx="143" cy="120" r="3.5"/>
      <circle cx="156" cy="112" r="3.5"/>
      <circle cx="170" cy="106" r="3.5"/>
      <circle cx="185" cy="102" r="3.5"/>
    </g>
    
    <!-- Inner circle dots (smallest and fewest) -->
    <g>
      <circle cx="200" cy="120" r="3"/>
      <circle cx="212" cy="121" r="3"/>
      <circle cx="223" cy="124" r="3"/>
      <circle cx="233" cy="129" r="3"/>
      <circle cx="242" cy="135" r="3"/>
      <circle cx="250" cy="143" r="3"/>
      <circle cx="256" cy="152" r="3"/>
      <circle cx="260" cy="162" r="3"/>
      <circle cx="262" cy="173" r="3"/>
      <circle cx="263" cy="184" r="3"/>
      <circle cx="262" cy="195" r="3"/>
      <circle cx="260" cy="206" r="3"/>
      <circle cx="256" cy="216" r="3"/>
      <circle cx="250" cy="225" r="3"/>
      <circle cx="242" cy="233" r="3"/>
      <circle cx="233" cy="239" r="3"/>
      <circle cx="223" cy="244" r="3"/>
      <circle cx="212" cy="247" r="3"/>
      <circle cx="200" cy="248" r="3"/>
      <circle cx="188" cy="247" r="3"/>
      <circle cx="177" cy="244" r="3"/>
      <circle cx="167" cy="239" r="3"/>
      <circle cx="158" cy="233" r="3"/>
      <circle cx="150" cy="225" r="3"/>
      <circle cx="144" cy="216" r="3"/>
      <circle cx="140" cy="206" r="3"/>
      <circle cx="138" cy="195" r="3"/>
      <circle cx="137" cy="184" r="3"/>
      <circle cx="138" cy="173" r="3"/>
      <circle cx="140" cy="162" r="3"/>
      <circle cx="144" cy="152" r="3"/>
      <circle cx="150" cy="143" r="3"/>
      <circle cx="158" cy="135" r="3"/>
      <circle cx="167" cy="129" r="3"/>
      <circle cx="177" cy="124" r="3"/>
      <circle cx="188" cy="121" r="3"/>
    </g>
  </g>
  
  <!-- Text "haylo" -->
  <text x="200" y="200" font-family="serif" font-size="60" text-anchor="middle" dominant-baseline="middle" fill="#333333">haylo</text>
</svg>